<?xml version="1.0" encoding="utf-8"?>
<!-- Generator: Adobe Illustrator 27.0.0, SVG Export Plug-In . SVG Version: 6.00 Build 0)  -->
<svg version="1.1" id="Layer_1" xmlns="http://www.w3.org/2000/svg" xmlns:xlink="http://www.w3.org/1999/xlink" x="0px" y="0px"
	 viewBox="0 0 883 856" style="enable-background:new 0 0 883 856;" xml:space="preserve">
<style type="text/css">
	.st0{fill:#FFFFFF;}
</style>
<g>
	<path class="st0" d="M72.1,38.2c265.4,0,530.8,0,796.2,0c0,265.4,0,530.8,0,796.2c-265.4,0-530.8,0-796.2,0
		C72.1,569,72.1,303.6,72.1,38.2z M470.8,759.9c92.6,0,185.2,0.2,277.7-0.1c55.4-0.1,95-39.6,95.1-94.6c0.2-119.7,0.2-239.4,0-359.1
		c-0.1-53.5-39-92.6-92.4-93.5c-23-0.4-46-0.1-69-0.1c-35.9,0-35.9,0-47.7-33.9c-14.9-42.7-46.9-65.7-92.2-65.9
		c-48.9-0.1-97.9-0.3-146.8,0c-41.5,0.3-73.4,23.1-87.7,61.9c-3,8.3-6.5,16.5-8.4,25.1c-2.2,9.8-7.1,13.1-17.3,12.9
		c-28.9-0.6-57.8-0.3-86.7-0.2c-60.2,0.1-98.4,38.2-98.4,98.2c0,116.8,0,233.5,0,350.3c0,60.8,38.4,98.9,99.7,98.9
		C288,759.9,379.4,759.9,470.8,759.9z"/>
	<path class="st0" d="M470.8,759.9c-91.4,0-182.8,0-274.2,0c-61.3,0-99.6-38.2-99.7-98.9c0-116.8,0-233.5,0-350.3
		c0-60,38.2-98,98.4-98.2c28.9-0.1,57.8-0.4,86.7,0.2c10.1,0.2,15-3.1,17.3-12.9c2-8.5,5.4-16.8,8.4-25.1
		c14.3-38.8,46.2-61.6,87.7-61.9c48.9-0.3,97.9-0.2,146.8,0c45.3,0.1,77.3,23.1,92.2,65.9c11.8,33.9,11.8,33.9,47.7,33.9
		c23,0,46-0.3,69,0.1c53.4,0.9,92.3,40,92.4,93.5c0.2,119.7,0.2,239.4,0,359.1c-0.1,55-39.7,94.5-95.1,94.6
		C655.9,760,563.3,759.9,470.8,759.9z M469.9,710.4c91.4,0,182.8,0,274.2,0c34.1,0,49.9-15.7,49.9-49.5c0.1-116.8,0.1-233.6,0-350.3
		c0-32.6-16.3-48.9-48.8-49.1c-37.7-0.2-75.5-0.4-113.2,0.1c-15.3,0.2-24.3-6.6-29-20.6c-5.5-16.7-11-33.5-16.9-50.1
		c-6.7-18.9-20.6-28.5-40.3-28.6c-50.1-0.3-100.3-0.3-150.4,0c-20.5,0.1-34.6,10-41.5,29.6c-5.6,16.1-11.2,32.2-16.3,48.5
		c-4.7,15-14.1,21.6-30.2,21.4c-37.1-0.6-74.3-0.3-111.5-0.2c-33.6,0.1-49.6,16.2-49.6,50.1c-0.1,116.2-0.1,232.4,0,348.6
		c0,35.1,15.4,50.3,50.9,50.3C288.2,710.5,379,710.4,469.9,710.4z"/>
	<path class="st0" d="M469.9,710.4c-90.8,0-181.7,0-272.5,0c-35.5,0-50.9-15.2-50.9-50.3c-0.1-116.2-0.1-232.4,0-348.6
		c0-33.9,15.9-49.9,49.6-50.1c37.2-0.1,74.3-0.4,111.5,0.2c16,0.3,25.4-6.4,30.2-21.4c5.1-16.3,10.7-32.4,16.3-48.5
		c6.8-19.5,21-29.5,41.5-29.6c50.1-0.2,100.3-0.3,150.4,0c19.7,0.1,33.6,9.8,40.3,28.6c5.9,16.6,11.4,33.4,16.9,50.1
		c4.6,14,13.6,20.8,29,20.6c37.7-0.5,75.5-0.3,113.2-0.1c32.5,0.1,48.8,16.5,48.8,49.1c0.1,116.8,0.1,233.6,0,350.3
		c0,33.8-15.9,49.5-49.9,49.5C652.7,710.5,561.3,710.4,469.9,710.4z M284.2,473.6c0,103.3,83.4,186.7,186.4,186.5
		c102.3-0.2,185.6-83.4,185.7-185.5C656.4,370,573.4,287,468.9,287.4C366.6,287.7,284.3,370.7,284.2,473.6z M743.8,336.2
		c-0.3-13.5-11.9-24.2-25.6-23.7c-14.1,0.6-24.5,11.5-23.2,25.6c1.3,14.4,9.5,22.4,24.3,22.6C732.9,360.9,744.1,349.6,743.8,336.2z"
		/>
	<path class="st0" d="M284.2,473.6c0-102.9,82.4-185.9,184.7-186.3C573.4,287,656.4,370,656.3,474.6
		c-0.1,102.1-83.3,185.2-185.7,185.5C367.6,660.3,284.2,576.9,284.2,473.6z M607.1,474.3c0.1-75.9-60.5-137.4-136.2-138.2
		c-74.7-0.8-137.2,61.4-137.5,136.9c-0.3,75.7,60.8,137.6,136.2,138.1C544.6,611.6,606.9,549.6,607.1,474.3z"/>
	<path class="st0" d="M743.8,336.2c0.3,13.4-10.9,24.7-24.6,24.5c-14.8-0.2-22.9-8.2-24.3-22.6c-1.3-14.1,9.1-25,23.2-25.6
		C731.8,312,743.5,322.7,743.8,336.2z"/>
	<path class="st0" d="M607.1,474.3c-0.1,75.3-62.5,137.3-137.5,136.8c-75.4-0.5-136.5-62.4-136.2-138.1
		c0.3-75.5,62.7-137.7,137.5-136.9C546.6,336.9,607.2,398.4,607.1,474.3z"/>
</g>
</svg>
