<?xml version="1.0" encoding="UTF-8"?>
<svg id="Layer_1" data-name="Layer 1" xmlns="http://www.w3.org/2000/svg" viewBox="0 0 781 687">
  <defs>
    <style>
      .cls-1 {
        fill: #fff;
      }
    </style>
  </defs>
  <path class="cls-1" d="M727.98,675H79.98V27H727.98V675Zm-450.24-226.98c0-19.27,.21-36.93-.07-54.58-.24-15-7.53-23.1-19.87-22.94-11.79,.15-19.35,8.96-19.49,23.61-.23,23.02-.27,46.05-.02,69.08,.19,16.99,7.84,24.54,24.59,24.62,25.41,.13,50.83-.01,76.24,0,62.34,0,124.68,.08,187.02,.01,16.93-.02,25.04-6.17,25.36-20.58,.56-25.41,.35-50.84,.06-76.26-.12-10.79-5.27-18.39-16.6-20.18-12.87-2.04-22.34,6.63-22.68,21.45-.43,18.48-.1,36.98-.1,55.78h-234.44Zm94.31-204.47c1.28,.6,2.56,1.21,3.83,1.81,0,4.64,0,9.29,0,13.93-.06,41.26-.16,82.53-.18,123.79,0,17.01,7.08,26.32,19.67,26.14,12.17-.17,18.89-9,18.94-25.36,.09-30.71,.03-61.42,.03-92.13,0-15.54,0-31.08,0-46.62l4.73-2.51c11.94,12.95,23.67,26.1,35.88,38.79,11.7,12.14,23.4,13.5,32.44,4.52,8.3-8.25,6.88-20.26-4.25-31.49-23.29-23.48-46.71-46.85-70.21-70.12-13.34-13.21-22.18-13.25-35.37-.2-23.53,23.27-46.94,46.65-70.29,70.08-11.09,11.13-12.77,23.28-4.71,31.57,8.8,9.05,20.77,7.7,32.58-4.16,12.47-12.53,24.62-25.37,36.91-38.07Z"/>
  <path class="cls-1" d="M277.74,448.02h234.44c0-18.8-.32-37.3,.1-55.78,.34-14.82,9.81-23.49,22.68-21.45,11.33,1.79,16.48,9.39,16.6,20.18,.28,25.42,.5,50.85-.06,76.26-.32,14.42-8.42,20.56-25.36,20.58-62.34,.07-124.68,0-187.02-.01-25.42,0-50.83,.14-76.24,0-16.76-.09-24.4-7.63-24.59-24.62-.26-23.02-.21-46.05,.02-69.08,.14-14.64,7.7-23.45,19.49-23.61,12.34-.16,19.64,7.93,19.87,22.94,.28,17.65,.07,35.31,.07,54.58Z"/>
  <path class="cls-1" d="M372.06,243.55c-12.29,12.7-24.44,25.54-36.91,38.07-11.81,11.86-23.77,13.21-32.58,4.16-8.06-8.29-6.39-20.44,4.71-31.57,23.36-23.44,46.77-46.82,70.29-70.08,13.2-13.05,22.03-13.01,35.37,.2,23.51,23.27,46.92,46.64,70.21,70.12,11.13,11.22,12.55,23.23,4.25,31.49-9.04,8.98-20.74,7.62-32.44-4.52-12.22-12.68-23.94-25.84-35.88-38.79l-4.73,2.51c0,15.54,0,31.08,0,46.62,0,30.71,.06,61.42-.03,92.13-.05,16.36-6.77,25.19-18.94,25.36-12.59,.18-19.68-9.13-19.67-26.14,.02-41.26,.11-82.53,.18-123.79,0-4.64,0-9.29,0-13.93-1.28-.6-2.56-1.21-3.83-1.81Z"/>
</svg>